<svg xmlns="http://www.w3.org/2000/svg" width="1024" height="1024" viewBox="0 0 1024 1024"><rect width="1024" height="1024" rx="232" fill="#16365D"/><path d="M502 544 Q512 540 522 544 L793 640 Q806 645 806 658 V706 Q806 717 795 722 L522 816 Q512 820 502 816 L229 722 Q218 717 218 706 V658 Q218 645 231 640 Z" fill="#E4F0FF"/><path d="M291 657 L512 579 L733 657 L512 736 Z" fill="#234770"/><path d="M502 364 Q512 360 522 364 L793 460 Q806 465 806 478 V526 Q806 537 795 542 L522 636 Q512 640 502 636 L229 542 Q218 537 218 526 V478 Q218 465 231 460 Z" fill="#57C9E3"/><path d="M291 477 L512 399 L733 477 L512 556 Z" fill="#16365D"/><path d="M502 184 Q512 180 522 184 L793 280 Q806 285 806 298 V346 Q806 357 795 362 L522 456 Q512 460 502 456 L229 362 Q218 357 218 346 V298 Q218 285 231 280 Z" fill="#E4F0FF"/><path d="M291 297 L512 219 L733 297 L512 376 Z" fill="#234770"/></svg>
